<mxfile host="app.diagrams.net" modified="2022-12-15T07:45:38.867Z" agent="5.0 (Windows NT 10.0; Win64; x64) AppleWebKit/537.36 (KHTML, like Gecko) Chrome/108.0.0.0 Safari/537.36" version="20.6.2" etag="Ws00H3LrovqVIQoCucFv" type="github">
  <diagram id="O0VcWmGV28BGJFvSAiSG" name="第 1 页">
    <mxGraphModel dx="782" dy="417" grid="1" gridSize="10" guides="1" tooltips="1" connect="1" arrows="1" fold="1" page="1" pageScale="1" pageWidth="827" pageHeight="1169" math="0" shadow="0">
      <root>
        <mxCell id="0" />
        <mxCell id="1" parent="0" />
        <mxCell id="5qk0_t1jYMqioV6OAKp1-1" value="" style="triangle;whiteSpace=wrap;html=1;rotation=-90;align=center;" vertex="1" parent="1">
          <mxGeometry x="195" y="-35" width="100" height="400" as="geometry" />
        </mxCell>
        <mxCell id="5qk0_t1jYMqioV6OAKp1-3" value="&lt;b&gt;&lt;font face=&quot;Times New Roman&quot; style=&quot;font-size: 24px;&quot;&gt;Data&lt;/font&gt;&lt;/b&gt;" style="rounded=0;whiteSpace=wrap;html=1;" vertex="1" parent="1">
          <mxGeometry x="50" y="235" width="80" height="125" as="geometry" />
        </mxCell>
        <mxCell id="5qk0_t1jYMqioV6OAKp1-4" value="&lt;font face=&quot;Times New Roman&quot; style=&quot;font-size: 24px;&quot;&gt;&lt;b&gt;Model&lt;/b&gt;&lt;/font&gt;" style="rounded=0;whiteSpace=wrap;html=1;" vertex="1" parent="1">
          <mxGeometry x="140" y="235.5" width="90" height="124.5" as="geometry" />
        </mxCell>
        <mxCell id="5qk0_t1jYMqioV6OAKp1-5" value="&lt;font style=&quot;font-size: 24px;&quot; face=&quot;Times New Roman&quot;&gt;&lt;b&gt;Optimizer&lt;/b&gt;&lt;/font&gt;" style="rounded=0;whiteSpace=wrap;html=1;" vertex="1" parent="1">
          <mxGeometry x="240" y="237.5" width="110" height="122.5" as="geometry" />
        </mxCell>
        <mxCell id="5qk0_t1jYMqioV6OAKp1-6" value="&lt;font face=&quot;Times New Roman&quot; style=&quot;font-size: 24px;&quot;&gt;Registry&amp;amp;&amp;amp; Config &amp;amp;&amp;amp; Builder&lt;/font&gt;" style="rounded=0;whiteSpace=wrap;html=1;" vertex="1" parent="1">
          <mxGeometry x="50" y="370" width="390" height="70" as="geometry" />
        </mxCell>
        <mxCell id="5qk0_t1jYMqioV6OAKp1-8" value="&lt;b&gt;&lt;font face=&quot;Times New Roman&quot;&gt;Runner&lt;/font&gt;&lt;/b&gt;" style="text;html=1;strokeColor=none;fillColor=none;align=center;verticalAlign=middle;whiteSpace=wrap;rounded=0;fontSize=24;" vertex="1" parent="1">
          <mxGeometry x="190" y="160" width="120" height="50" as="geometry" />
        </mxCell>
        <mxCell id="5qk0_t1jYMqioV6OAKp1-9" value="&lt;font face=&quot;Times New Roman&quot;&gt;&lt;span style=&quot;font-size: 24px;&quot;&gt;&lt;b&gt;Logger&lt;/b&gt;&lt;/span&gt;&lt;/font&gt;" style="rounded=0;whiteSpace=wrap;html=1;" vertex="1" parent="1">
          <mxGeometry x="360" y="235" width="80" height="125" as="geometry" />
        </mxCell>
        <mxCell id="5qk0_t1jYMqioV6OAKp1-10" value="自定义流程" style="text;html=1;strokeColor=none;fillColor=none;align=center;verticalAlign=middle;whiteSpace=wrap;rounded=0;fontFamily=Times New Roman;fontSize=24;" vertex="1" parent="1">
          <mxGeometry x="470" y="150" width="150" height="60" as="geometry" />
        </mxCell>
        <mxCell id="5qk0_t1jYMqioV6OAKp1-11" value="模块化组件" style="text;html=1;strokeColor=none;fillColor=none;align=center;verticalAlign=middle;whiteSpace=wrap;rounded=0;fontFamily=Times New Roman;fontSize=24;" vertex="1" parent="1">
          <mxGeometry x="480" y="268.75" width="150" height="60" as="geometry" />
        </mxCell>
        <mxCell id="5qk0_t1jYMqioV6OAKp1-12" value="模块化设计" style="text;html=1;strokeColor=none;fillColor=none;align=center;verticalAlign=middle;whiteSpace=wrap;rounded=0;fontFamily=Times New Roman;fontSize=24;" vertex="1" parent="1">
          <mxGeometry x="480" y="370" width="150" height="60" as="geometry" />
        </mxCell>
      </root>
    </mxGraphModel>
  </diagram>
</mxfile>
